<svg width="47" height="99" viewBox="0 0 47 99" fill="none" xmlns="http://www.w3.org/2000/svg">
<path d="M23.0923 12.3914C23.0712 12.3914 23.0479 12.3914 23.0268 12.3937C25.4859 12.4263 27.468 14.4232 27.468 16.8815C27.468 19.3397 25.4508 21.3739 22.9637 21.3739C20.4766 21.3739 18.4804 19.3864 18.4594 16.9258C18.457 16.9397 18.457 16.956 18.457 16.97C18.457 19.5005 20.5327 21.5533 23.0923 21.5533C25.6518 21.5533 27.7275 19.5005 27.7275 16.97C27.7275 14.4395 25.6518 12.3914 23.0923 12.3914Z" fill="#1D1D1B"/>
<path opacity="0.5" d="M27.7275 16.97C27.7275 19.5005 25.6518 21.5533 23.0923 21.5533C20.5327 21.5533 18.457 19.5005 18.457 16.97C18.457 16.956 18.457 16.9397 18.4594 16.9258C18.4804 19.3864 20.4883 21.3739 22.9637 21.3739C25.4391 21.3739 27.468 19.363 27.468 16.8815C27.468 14.3999 25.4859 12.4263 23.0268 12.3937C23.0479 12.3914 23.0712 12.3914 23.0923 12.3914C25.6518 12.3914 27.7275 14.4419 27.7275 16.97Z" fill="#1D1D1B"/>
<path d="M33.5268 36.3571C31.0117 36.3897 28.9804 38.4029 28.9594 40.8891C28.957 40.8752 28.957 40.8588 28.957 40.8449C28.957 38.3656 30.9743 36.3547 33.4637 36.3547C33.4847 36.3547 33.5058 36.3547 33.5268 36.3571Z" fill="#1D1D1B"/>
<path opacity="0.4" d="M30.4901 98.9484C29.9735 98.2608 29.5084 97.5336 29.104 96.769L30.4901 98.9484Z" fill="#1D1D1B"/>
<path opacity="0.4" d="M28.9594 40.8891C28.957 40.8752 28.957 40.8588 28.957 40.8449C28.957 38.3656 30.9743 36.3547 33.4637 36.3547C33.4847 36.3547 33.5058 36.3547 33.5268 36.3571C31.0117 36.3897 28.9804 38.4029 28.9594 40.8891Z" fill="#1D1D1B"/>
<path opacity="0.4" d="M27.7275 16.97C27.7275 19.5005 25.6518 21.5533 23.0923 21.5533C20.5327 21.5533 18.457 19.5005 18.457 16.97C18.457 16.956 18.457 16.9397 18.4594 16.9258C18.4804 19.3864 20.4883 21.3739 22.9637 21.3739C25.4391 21.3739 27.468 19.363 27.468 16.8815C27.468 14.3999 25.4859 12.4263 23.0268 12.3937C23.0479 12.3914 23.0712 12.3914 23.0923 12.3914C25.6518 12.3914 27.7275 14.4419 27.7275 16.97Z" fill="#1D1D1B"/>
<path opacity="0.4" d="M38.116 24.8159C37.6485 25.704 37.1016 26.5431 36.4868 27.3263L38.116 24.8159Z" fill="#1D1D1B"/>
<path d="M38.8653 36.1005C36.82 35.3712 34.4545 34.8026 31.8903 34.4065L36.4811 27.3346L36.4858 27.3276H36.4881L38.1174 24.8158L38.122 24.8111V24.8065C39.2323 22.7047 39.9149 20.3373 40.0481 17.8091C40.0762 17.2872 40.0785 16.7676 40.0575 16.255C39.7232 7.60559 32.8206 0.484772 23.9779 0.0234104C14.6139 -0.463583 6.62677 6.70617 6.1359 16.0429C6.13356 16.0686 6.13356 16.0918 6.13356 16.1175V16.1221C5.98162 19.2678 6.70391 22.2573 8.0877 24.8531L8.09471 24.8647V24.8694L8.10406 24.8787L9.49019 27.0574L9.4972 27.0643L9.50421 27.076L14.1839 34.4345C11.6827 34.8259 9.37799 35.3875 7.37944 36.1005C1.28094 38.2745 0 41.0776 0 43.0489C0 45.0202 1.28094 47.8256 7.37944 49.9973C11.6079 51.5049 17.1992 52.3344 23.1224 52.3344C29.0456 52.3344 34.6345 51.5049 38.8653 49.9973C44.9615 47.8256 46.2424 45.0202 46.2424 43.0489C46.2424 41.0776 44.9615 38.2745 38.8653 36.1005ZM11.3158 24.2635L11.0937 23.914C9.81977 21.8216 9.0858 19.368 9.0858 16.742C9.0858 9.10152 15.2988 2.90808 22.9634 2.90808C30.6281 2.90808 36.8387 9.10152 36.8387 16.742C36.8387 19.6546 35.9341 22.3575 34.3891 24.5874L34.3821 24.5991L29.2302 32.7102C29.2933 32.6869 29.3565 32.6636 29.4196 32.638L28.536 34.0011L26.5071 37.1211L22.9634 42.5805L19.0084 36.3615L17.5171 34.0197L16.5961 32.5681L11.3158 24.2635ZM23.1224 49.0722C11.0049 49.0722 3.27248 45.5048 3.27248 43.0489C3.27248 41.1079 8.09938 38.4726 16.1053 37.4543L21.4371 45.8357C21.6544 46.1759 21.9864 46.4019 22.351 46.4928C22.5848 46.6233 22.8372 46.6862 23.0897 46.6862C23.5899 46.6862 24.0761 46.4415 24.3683 45.9942L29.9291 37.4287C38.0589 38.4283 42.97 41.0916 42.97 43.0489C42.97 45.5048 35.2376 49.0722 23.1224 49.0722Z" fill="#1D1D1B"/>
<path d="M22.9639 9.17847C18.6957 9.17847 15.2339 12.627 15.2339 16.8818C15.2339 21.1366 18.6957 24.5875 22.9639 24.5875C27.2322 24.5875 30.6917 21.1366 30.6917 16.8818C30.6917 12.627 27.2322 9.17847 22.9639 9.17847ZM23.0925 21.5537C20.533 21.5537 18.4573 19.5009 18.4573 16.9704C18.4573 16.9564 18.4573 16.9401 18.4596 16.9261C18.4573 16.9121 18.4573 16.8958 18.4573 16.8818C18.4573 14.4026 20.4745 12.3917 22.9639 12.3917C22.985 12.3917 23.006 12.3917 23.0271 12.394C23.0481 12.3917 23.0715 12.3917 23.0925 12.3917C25.6521 12.3917 27.7277 14.4422 27.7277 16.9704C27.7277 19.4985 25.6521 21.5537 23.0925 21.5537Z" fill="#1D1D1B"/>
<path d="M28.9594 40.8891C28.957 40.8752 28.957 40.8588 28.957 40.8449C28.957 38.3656 30.9743 36.3547 33.4637 36.3547C33.4847 36.3547 33.5058 36.3547 33.5268 36.3571C31.0117 36.3897 28.9804 38.4029 28.9594 40.8891Z" fill="#1D1D1B"/>
<path d="M27.7275 16.97C27.7275 19.5005 25.6518 21.5533 23.0923 21.5533C20.5327 21.5533 18.457 19.5005 18.457 16.97C18.457 16.956 18.457 16.9397 18.4594 16.9258C18.4804 19.3864 20.4883 21.3739 22.9637 21.3739C25.4391 21.3739 27.468 19.363 27.468 16.8815C27.468 14.3999 25.4859 12.4263 23.0268 12.3937C23.0479 12.3914 23.0712 12.3914 23.0923 12.3914C25.6518 12.3914 27.7275 14.4419 27.7275 16.97Z" fill="#1D1D1B"/>
</svg>
