<svg width="15" height="43" viewBox="0 0 15 43" fill="none" xmlns="http://www.w3.org/2000/svg">
<path d="M13.6218 24.4691H13.5892V24.4683C13.5946 24.4687 13.6057 24.4691 13.6218 24.4691Z" fill="#1D1D1B"/>
<path d="M14.2997 0.40332V0.437509H14.2985C14.2989 0.432154 14.2997 0.420208 14.2997 0.40332Z" fill="#1D1D1B"/>
<path d="M5.00042 35.9518H5V35.9382C5 35.9425 5 35.9472 5.00042 35.9518Z" fill="#1D1D1B"/>
<path d="M6.31033 26.7139V26.7147C6.30621 26.7147 6.29715 26.7139 6.28479 26.7139H6.31033Z" fill="#1D1D1B"/>
<path d="M5.70065 42.8799C5.70065 42.8799 5.70065 42.8826 5.7002 42.884V42.8799H5.70065Z" fill="#1D1D1B"/>
<path d="M14.5564 14.3504C14.2483 14.0674 13.8961 14.0099 13.7136 14.0007H13.705L1.26909 14.0002C0.967157 14.0036 0.581613 14.1274 0.308106 14.4725C0.0584909 14.7878 0.00823822 15.1446 0.000411995 15.3293V15.3369L0 23.9382C0 23.9424 8.8002e-08 23.947 0.000411995 23.9516C0.0111216 24.2539 0.134694 24.6313 0.459276 24.9004C0.765735 25.1552 1.11256 25.2056 1.29215 25.2131H1.29957L9.61226 25.1829H13.6057C13.6127 25.1829 13.6197 25.1829 13.6271 25.1829C13.9459 25.1829 14.3603 25.0654 14.6565 24.7308C14.9345 24.4168 14.9905 24.0578 14.9996 23.8714V23.8631L15 15.3868C14.9971 15.0636 14.881 14.6484 14.5564 14.3499V14.3504ZM0.853059 14.9209C1.00258 14.732 1.20977 14.7139 1.28474 14.7139H13.6873C13.7787 14.7198 13.9447 14.7492 14.0876 14.8806C14.1268 14.9167 14.1589 14.9557 14.1848 14.996L7.56508 20.5613C7.56508 20.5613 7.56385 20.5617 7.56343 20.5626L7.45428 20.6545L7.45304 20.6537L0.80363 14.9935C0.817635 14.9687 0.834111 14.9444 0.853059 14.9209ZM0.700241 15.8352L5.35479 19.7973L0.700241 23.7266V15.8352ZM0.700241 23.8836V23.8798H0.700654C0.700654 23.8798 0.700653 23.8824 0.700241 23.8836ZM13.6292 24.4692H9.61226V24.8261L9.61102 24.4692L1.31357 24.4995C1.25014 24.4961 1.11791 24.4802 0.990636 24.408L5.90139 20.2628L7.26933 21.4274L7.27098 21.4253C7.32865 21.463 7.39455 21.4819 7.46128 21.4819C7.54407 21.4819 7.62769 21.4521 7.69442 21.3913L7.87442 21.2271L7.88143 21.2208L9.043 20.2439L13.9591 24.3903C13.8277 24.4575 13.6951 24.4684 13.6292 24.4692ZM14.2998 23.7514L9.5929 19.7817L14.2998 15.8247V23.7514ZM14.2998 15.4381H14.2985C14.2989 15.4326 14.2998 15.4204 14.2998 15.4032V15.4381Z" fill="#1D1D1B"/>
<path d="M14.2997 0.40332V0.437509H14.2985C14.2989 0.432154 14.2997 0.420208 14.2997 0.40332Z" fill="#1D1D1B"/>
<path d="M5.70065 42.8799C5.70065 42.8799 5.70065 42.8826 5.7002 42.884V42.8799H5.70065Z" fill="#1D1D1B"/>
</svg>
