<svg width="14" height="17" viewBox="0 0 14 17" fill="none" xmlns="http://www.w3.org/2000/svg">
<path d="M13.3996 13.7606C13.2744 13.3345 12.9987 13.1115 12.886 13.035V13.036L10.6976 11.067L10.7012 11.0628C10.5461 10.9289 10.2854 10.753 9.92177 10.677C9.66936 10.6242 9.40403 10.6294 9.15318 10.692C9.14542 10.6935 9.13714 10.6956 9.12938 10.6977C9.12732 10.6982 9.12576 10.6987 9.12369 10.6992L8.00702 11.0096C7.51617 10.5487 6.84689 9.8365 6.17244 8.86309C5.4897 7.87727 5.05679 6.99075 4.80025 6.37112L5.70228 5.23427C5.73487 5.19341 5.75866 5.14841 5.77469 5.10135C5.89624 4.89187 5.96089 4.65447 5.96193 4.41396C5.96296 4.19776 5.91176 3.98105 5.814 3.78709L4.72732 0.865827C4.67353 0.676525 4.57216 0.499635 4.43561 0.359468C4.15062 0.0677557 3.8015 0.0134478 3.66237 0.00413786V0C3.32566 0.0279299 2.64034 0.135512 1.82934 0.538944C1.09747 0.903067 0.618523 1.33184 0.364051 1.59925C0.262676 1.69493 0.12406 1.86768 0.0485462 2.14026C-0.00472754 2.33318 -0.00679607 2.50955 0.0076861 2.64662H0.0061345C0.225436 4.7605 0.939718 7.93571 3.09911 11.0571C5.2554 14.1744 7.96978 15.964 9.87935 16.9193C9.89073 16.924 9.90315 16.9286 9.91711 16.9338C10.0025 16.9648 10.1369 17 10.305 17C10.3531 17 10.4043 16.9969 10.4576 16.9902C10.5471 16.9788 10.6283 16.9586 10.6997 16.9343L10.7033 16.9426C11.2293 16.699 11.7165 16.3928 12.1525 16.0312C12.5803 15.6764 12.9656 15.2627 13.2977 14.8013C13.2992 14.7997 13.3002 14.7977 13.3018 14.7956C13.3018 14.7956 13.3018 14.7951 13.3023 14.7946C13.3049 14.7899 13.308 14.7842 13.3111 14.7775C13.3742 14.657 13.5454 14.2592 13.3996 13.7606ZM11.5908 15.3547C11.2588 15.6299 10.891 15.8688 10.4964 16.0664L10.4928 16.0623C10.4928 16.0623 10.4385 16.1062 10.3474 16.1181C10.2921 16.1249 10.2502 16.1171 10.228 16.1109C8.41252 15.1959 5.8559 13.4969 3.82219 10.557C1.79417 7.62538 1.10626 4.64205 0.889029 2.63058L0.895236 2.62851C0.895236 2.62851 0.857996 2.51369 0.89627 2.37404C0.909201 2.32646 0.926786 2.29284 0.940751 2.27112C0.941269 2.2706 0.941269 2.27008 0.941786 2.26956C1.12695 2.06268 1.53762 1.66648 2.22139 1.32615C2.82809 1.0241 3.34014 0.920653 3.63754 0.885999C3.68098 0.894274 3.74978 0.915997 3.80615 0.973926C3.82581 0.994098 3.84132 1.0153 3.8527 1.03599C3.87236 1.07116 3.88167 1.10427 3.88632 1.12702L3.88891 1.13426L5.07438 4.31931C5.07955 4.34724 5.08265 4.37775 5.08265 4.40982C5.08214 4.52051 5.0449 4.60792 5.01386 4.66171L5.02834 4.66998C5.02369 4.67567 5.01852 4.68136 5.01386 4.68757L3.95046 6.02665C3.8377 6.16837 3.82684 6.35871 3.90805 6.5087C3.90805 6.50922 3.90805 6.50974 3.90856 6.51025C4.16976 7.17437 4.64871 8.20725 5.44936 9.36376C6.25519 10.5265 7.05792 11.3411 7.59117 11.8206C7.59272 11.8226 7.59427 11.8242 7.59583 11.8252C7.60617 11.8345 7.61703 11.8433 7.62841 11.8516C7.63876 11.8599 7.65013 11.8671 7.66151 11.8743C7.66255 11.8749 7.6641 11.8759 7.66513 11.8764C7.67548 11.8826 7.68582 11.8883 7.69668 11.8935C7.69772 11.894 7.69824 11.894 7.69927 11.8945C7.70962 11.8997 7.71996 11.9043 7.7303 11.908C7.73392 11.9095 7.73703 11.9106 7.74065 11.9121C7.74685 11.9142 7.75358 11.9168 7.76082 11.9183C7.76651 11.9204 7.7722 11.9224 7.77841 11.9235C7.78927 11.9266 7.80013 11.9292 7.81099 11.9307C7.8203 11.9328 7.82909 11.9338 7.83789 11.9349C7.84306 11.9349 7.84823 11.9359 7.8534 11.9364C7.8653 11.9374 7.87719 11.938 7.88909 11.938C7.89892 11.938 7.90823 11.9374 7.91805 11.9369C7.92788 11.9364 7.93771 11.9354 7.94754 11.9338C7.95478 11.9333 7.9615 11.9318 7.96874 11.9302C7.98116 11.9281 7.99409 11.9256 8.0065 11.9219L8.02253 11.9173L9.35282 11.548C9.35282 11.548 9.35644 11.5469 9.35851 11.5464C9.44644 11.5237 9.5835 11.5045 9.74177 11.5382C9.87987 11.5671 9.98797 11.625 10.065 11.6809L12.4453 13.8232L12.451 13.817C12.4867 13.8563 12.5291 13.9189 12.5555 14.0084C12.5999 14.1605 12.5653 14.2861 12.5451 14.3405C12.2653 14.7201 11.9446 15.0609 11.5903 15.3547H11.5908Z" fill="#1D1D1B"/>
</svg>
